<svg xmlns="http://www.w3.org/2000/svg" viewBox="0 0 32 32" width="32" height="32">
  <defs>
    <linearGradient id="secureChatBlue" x1="0%" y1="0%" x2="100%" y2="100%">
      <stop offset="0%" stop-color="#3B82F6" />
      <stop offset="100%" stop-color="#1D4ED8" />
    </linearGradient>
  </defs>
  
  <!-- Modern Geometric Chat Bubble Structure -->
  <path d="M8 2h16a6 6 0 0 1 6 6v10a6 6 0 0 1-6 6h-9l-5 5v-5H8a6 6 0 0 1-6-6V8a6 6 0 0 1 6-6z" fill="url(#secureChatBlue)" />
  
  <!-- Minimalist Dynamic Auth/Lock Emblem -->
  <path d="M12 13v-2a4 4 0 0 1 8 0v2" fill="none" stroke="#ffffff" stroke-width="2" stroke-linecap="round" />
  <rect x="10" y="13" width="12" height="8" rx="2" fill="#ffffff" />
  <circle cx="16" cy="17" r="1.5" fill="#1D4ED8" />
</svg>
