<?xml version="1.0" encoding="UTF-8"?>
<svg xmlns="http://www.w3.org/2000/svg" xmlns:xlink="http://www.w3.org/1999/xlink" width="183px" height="100px" viewBox="0 0 183 100" version="1.1">
<g id="surface1">
<path style="fill-rule:evenodd;fill:rgb(14.509805%,55.686277%,70.588237%);fill-opacity:1;stroke-width:0.25;stroke-linecap:butt;stroke-linejoin:round;stroke:rgb(14.509805%,55.686277%,70.588237%);stroke-opacity:1;stroke-miterlimit:4;" d="M 842.861125 154.500039 C 822.75984 162.305625 803.829811 169.163164 787.242294 183.731484 C 779.993169 190.115 772.680733 196.561719 766.476242 203.956484 C 763.943797 206.958633 760.809896 213.278945 756.947917 214.448203 C 753.21256 215.554258 748.369258 214.764219 744.507279 214.732617 C 735.485442 214.701016 726.495261 214.701016 717.50508 214.764219 C 685.849513 214.953828 654.162291 214.890625 622.506724 214.764219 C 614.054688 214.732617 604.937884 213.910977 596.580815 215.364648 C 577.555819 218.651211 562.614391 234.104375 558.435856 252.780898 C 556.378245 262.008555 556.9797 272.089453 556.948045 281.506719 C 556.884734 295.506211 556.948045 309.505703 556.948045 323.505195 C 556.916389 370.465117 556.758111 417.488242 557.011356 464.511367 C 557.074667 476.488359 557.106323 488.496953 556.9797 500.505547 C 556.853078 515.516289 557.074667 530.400625 566.571337 542.914844 C 582.430776 563.835078 601.740672 562.065391 625.514003 562.065391 C 639.410797 562.096992 653.940702 563.045039 667.394318 558.81043 C 698.131873 549.045547 722.063482 524.617539 731.338563 493.774414 C 733.522797 486.537656 735.675376 479.079687 735.801998 471.495313 C 730.705452 472.632969 725.608905 473.770625 720.512359 474.908281 C 716.682036 487.264492 714.086279 501.706406 705.50762 511.913711 C 696.042606 513.809805 683.855213 511.344883 674.51682 509.006367 C 671.509541 508.24793 663.563994 504.898164 660.904927 505.530195 C 657.264536 506.383438 647.831177 512.071719 643.399398 513.904609 C 633.522861 517.981211 623.044869 520.825352 612.661843 523.321875 C 607.628607 524.522734 601.075905 526.671641 596.074325 525.502383 C 598.036971 520.477734 601.993916 515.990312 604.747951 511.28168 C 610.857475 500.853164 616.777066 487.612109 617.790044 475.508711 C 616.333888 473.075391 614.307932 471.116094 612.566876 468.872383 C 608.32503 463.373711 604.463051 457.464219 601.107561 451.365117 C 589.90149 430.855703 586.387722 407.660156 588.065467 384.496211 C 592.212346 326.001719 640.961919 281.348711 698.51174 277.809336 C 706.773843 277.303711 721.588648 276.355664 729.21764 278.50457 C 727.824795 290.607969 726.495261 302.742969 725.102416 314.877969 C 730.198963 314.877969 735.263853 314.877969 740.328744 314.877969 C 741.468344 301.573711 742.892845 288.553867 746.121713 275.565625 C 753.339182 246.460586 770.211599 218.050781 791.990629 197.509766 C 833.934255 157.944609 900.88578 134.780664 950.205153 175.325469 C 958.403945 182.056602 965.526447 190.304609 971.382727 199.153047 C 990.154478 227.468047 987.400444 263.177813 987.590377 295.506211 C 987.938589 356.149609 987.590377 416.824609 987.4321 477.499609 C 987.337133 515.231875 991.040834 549.045547 968.502071 581.974375 C 956.409644 599.67125 937.891137 613.575938 917.283363 619.738242 C 911.490394 621.444727 905.507492 623.151211 899.492935 623.909648 C 896.010822 624.35207 890.217853 623.751641 887.210575 625.774141 C 884.836407 627.354219 883.221973 631.746836 881.575884 634.085352 C 876.637615 640.942891 871.192858 647.737227 865.494856 653.962734 C 844.095692 677.347891 816.90356 695.392383 786.767461 705.346875 C 779.708269 707.685391 772.712389 710.055508 765.589886 712.204414 C 763.373997 712.868047 759.828573 714.574531 757.486061 714.321719 C 756.789639 714.226914 756.219839 713.658086 755.555072 713.500078 C 757.644339 709.265469 760.588307 705.504883 762.772541 701.301875 C 773.440467 680.634453 785.437927 648.81168 783.886804 625.489727 C 775.434768 623.372422 763.437308 624.920898 754.510438 624.889297 C 734.50412 624.857695 714.497801 624.889297 694.491483 624.826094 C 686.830836 624.826094 679.170189 624.794492 671.509541 624.857695 C 668.185707 624.889297 664.482006 625.584531 662.139494 623.498828 C 667.710873 621.255117 673.66212 619.89625 679.296811 617.715742 C 695.631084 611.490234 710.825756 602.863008 724.532616 592.023672 C 732.161608 585.987773 739.252455 579.477852 745.868468 572.3675 C 748.622503 569.460156 751.756404 563.550664 755.745005 562.381406 C 759.290429 561.338555 763.84883 562.065391 767.48922 562.096992 C 775.181523 562.160195 782.84217 562.096992 790.502818 562.096992 C 816.492038 562.065391 842.512914 562.065391 868.502135 562.033789 C 876.099471 562.033789 883.823429 562.413008 891.262487 560.64332 C 907.343515 556.851133 920.828787 543.262461 924.532488 527.177266 C 926.685067 517.886406 926.051955 507.995117 926.051955 498.514648 C 926.0203 485.842422 925.925333 473.170195 926.051955 460.497969 C 926.463478 413.506445 925.988644 366.514922 925.925333 319.491797 C 925.925333 305.492305 925.956989 291.492813 925.988644 277.49332 C 925.988644 263.588633 926.115266 250.031563 918.961108 237.580547 C 908.862982 219.978477 889.806331 213.721367 870.496435 214.764219 C 844.855426 216.186289 818.644617 226.235586 801.898822 246.365781 C 796.264131 253.160117 785.691171 268.802891 785.437927 277.49332 C 800.505977 278.283359 815.47906 276.734883 830.483799 279.168203 C 858.18242 283.655625 883.823429 304.228242 886.197596 333.491289 C 886.862363 341.644492 886.640774 349.418477 884.773096 357.445273 C 882.715484 366.262109 878.03046 373.941289 872.332458 380.83043 C 869.800013 383.895781 865.906378 386.076289 864.165322 389.489258 C 870.46478 392.870625 876.764238 396.568008 881.38595 402.098281 C 900.37929 424.851406 899.904457 461.509219 882.493895 484.957578 C 874.801592 495.291289 863.342277 502.433242 851.376473 506.825859 C 832.668033 513.746602 812.12357 512.766953 792.497118 512.672148 C 784.298327 512.608945 771.984311 510.68125 764.513597 513.30418 C 758.214139 527.714492 751.471504 541.745586 741.943178 554.386211 C 711.870389 594.20418 664.323728 620.686289 614.497865 624.257266 C 607.850196 624.731289 601.202527 625.458125 594.491547 624.920898 C 561.284857 622.266367 528.014857 606.244375 511.079128 576.380898 C 495.504589 548.855937 495.283 526.229219 495.346311 495.5125 C 495.377967 481.513008 495.188034 467.513516 495.409623 453.514023 C 496.264323 402.825117 494.618233 352.104609 495.536245 301.478906 C 495.916112 282.265156 493.985122 262.577383 496.960745 243.490039 C 498.765113 231.892266 501.234247 220.515703 506.362449 209.834375 C 519.752754 181.930195 545.931907 160.978359 576.574496 155.226875 C 595.536181 151.655898 615.289255 153.172773 634.504184 153.10957 C 669.515241 153.014766 704.494642 153.488789 739.505699 153.204375 C 764.830153 153.014766 790.186262 152.983164 815.510716 153.204375 C 821.841829 153.267578 828.172942 153.362383 834.504056 153.330781 C 837.479679 153.330781 840.645236 152.825156 842.861125 154.500039 Z M 683.633624 378.239102 C 661.759627 382.220898 667.552596 416.635 690.471226 411.98957 C 711.237278 407.754961 705.064442 374.352109 683.633624 378.239102 Z M 738.587688 378.175898 C 716.871969 382.094492 722.569971 416.476992 745.456946 411.863164 C 766.254653 407.628555 759.92354 374.352109 738.587688 378.175898 Z M 793.573408 378.175898 C 771.762722 382.220898 777.365757 416.856211 800.442666 411.894766 C 821.082095 407.438945 814.782637 374.257305 793.573408 378.175898 Z M 793.573408 378.175898 " transform="matrix(0.123399,0,0,0.123609,0,0)"/>
</g>
</svg>
